<svg width="13" height="13" viewBox="0 0 13 13" fill="none" xmlns="http://www.w3.org/2000/svg">
<path d="M9.21233 1.36264H11.6623C11.8248 1.36264 11.9806 1.42717 12.0954 1.54204C12.2103 1.65691 12.2748 1.8127 12.2748 1.97514V11.7751C12.2748 11.9376 12.2103 12.0934 12.0954 12.2082C11.9806 12.3231 11.8248 12.3876 11.6623 12.3876H0.637334C0.474889 12.3876 0.319097 12.3231 0.204231 12.2082C0.0893647 12.0934 0.0248337 11.9376 0.0248337 11.7751V1.97514C0.0248337 1.8127 0.0893647 1.65691 0.204231 1.54204C0.319097 1.42717 0.474889 1.36264 0.637334 1.36264H3.08733V0.137642H4.31233V1.36264H7.98733V0.137642H9.21233V1.36264ZM1.24983 5.03764V11.1626H11.0498V5.03764H1.24983ZM2.47483 6.26264H3.69983V7.48764H2.47483V6.26264ZM5.53733 6.26264H6.76233V7.48764H5.53733V6.26264ZM8.59983 6.26264H9.82483V7.48764H8.59983V6.26264Z" fill="white"/>
</svg>
