<svg width="13" height="14" viewBox="0 0 13 14" fill="none" xmlns="http://www.w3.org/2000/svg">
<path d="M6.14983 13.1001C2.767 13.1001 0.0248337 10.3579 0.0248337 6.97509C0.0248337 3.59225 2.767 0.85009 6.14983 0.85009C9.53267 0.85009 12.2748 3.59225 12.2748 6.97509C12.2748 10.3579 9.53267 13.1001 6.14983 13.1001ZM6.14983 11.8751C7.44939 11.8751 8.69573 11.3588 9.61466 10.4399C10.5336 9.52099 11.0498 8.27465 11.0498 6.97509C11.0498 5.67553 10.5336 4.4292 9.61466 3.51027C8.69573 2.59134 7.44939 2.07509 6.14983 2.07509C4.85027 2.07509 3.60394 2.59134 2.68501 3.51027C1.76608 4.4292 1.24983 5.67553 1.24983 6.97509C1.24983 8.27465 1.76608 9.52099 2.68501 10.4399C3.60394 11.3588 4.85027 11.8751 6.14983 11.8751ZM4.00608 8.20009H7.37483C7.45606 8.20009 7.53395 8.16782 7.59139 8.11039C7.64882 8.05296 7.68108 7.97506 7.68108 7.89384C7.68108 7.81262 7.64882 7.73472 7.59139 7.67729C7.53395 7.61986 7.45606 7.58759 7.37483 7.58759H4.92483C4.51872 7.58759 4.12924 7.42626 3.84208 7.1391C3.55491 6.85193 3.39358 6.46245 3.39358 6.05634C3.39358 5.65023 3.55491 5.26075 3.84208 4.97358C4.12924 4.68642 4.51872 4.52509 4.92483 4.52509H5.53733V3.30009H6.76233V4.52509H8.29358V5.75009H4.92483C4.84361 5.75009 4.76572 5.78236 4.70828 5.83979C4.65085 5.89722 4.61858 5.97512 4.61858 6.05634C4.61858 6.13756 4.65085 6.21546 4.70828 6.27289C4.76572 6.33032 4.84361 6.36259 4.92483 6.36259H7.37483C7.78095 6.36259 8.17043 6.52392 8.45759 6.81108C8.74476 7.09825 8.90608 7.48773 8.90608 7.89384C8.90608 8.29995 8.74476 8.68943 8.45759 8.9766C8.17043 9.26376 7.78095 9.42509 7.37483 9.42509H6.76233V10.6501H5.53733V9.42509H4.00608V8.20009Z" fill="white"/>
</svg>
