<svg width="25" height="23" viewBox="0 0 25 23" fill="none" xmlns="http://www.w3.org/2000/svg">
<path d="M1.09988 6.34268C2.00187 4.07278 4.21175 0.213946 5.83533 2.93783C7.86481 6.34268 8.87955 6.76826 9.89429 4.21462C10.7061 2.17171 11.811 4.78212 12.262 6.34268C12.6003 8.32884 13.5473 10.6838 14.6297 4.21462C15.9827 -3.87191 16.321 6.34268 17.3357 6.34268C18.3504 6.34268 18.6887 2.93783 20.0417 2.93783C21.3947 2.93783 22.7476 7.19403 23.7624 2.93783" stroke="#4FDFB1" stroke-width="0.91875" stroke-linecap="round"/>
<path d="M4.19919 20.0634V18.564H2.72184V17.9172H4.19919V16.4546H4.86804V17.9172H6.33804V18.564H4.86804V20.0634H4.19919ZM7.54791 20.3501V19.5636H8.73861V15.9621H9.19431L7.66551 16.8735V15.9768L9.01056 15.1683H9.68676V19.5636H10.804V20.3501H7.54791ZM13.3442 20.4236C12.7366 20.4236 12.2686 20.1933 11.9403 19.7327C11.612 19.2672 11.4479 18.6057 11.4479 17.7482C11.4479 16.8809 11.612 16.2218 11.9403 15.771C12.2686 15.3202 12.7366 15.0948 13.3442 15.0948C13.9567 15.0948 14.4246 15.3202 14.748 15.771C15.0763 16.2218 15.2405 16.8784 15.2405 17.7408C15.2405 18.6032 15.0763 19.2672 14.748 19.7327C14.4246 20.1933 13.9567 20.4236 13.3442 20.4236ZM13.3442 19.6445C13.6774 19.6445 13.9248 19.4926 14.0865 19.1888C14.2482 18.8801 14.3291 18.3974 14.3291 17.7408C14.3291 17.2998 14.2923 16.9421 14.2188 16.6677C14.1502 16.3933 14.0424 16.1924 13.8954 16.065C13.7484 15.9327 13.5647 15.8666 13.3442 15.8666C13.0159 15.8666 12.7684 16.016 12.6018 16.3149C12.4401 16.6089 12.3593 17.0842 12.3593 17.7408C12.3593 18.1769 12.396 18.5371 12.4695 18.8213C12.543 19.1006 12.6508 19.3088 12.7929 19.446C12.9399 19.5783 13.1237 19.6445 13.3442 19.6445ZM17.9057 20.3501H17.1192L20.1768 15.1683H20.9633L17.9057 20.3501ZM17.178 18.2627C16.7615 18.2627 16.4357 18.1206 16.2005 17.8364C15.9653 17.5522 15.8477 17.1651 15.8477 16.6751C15.8477 16.1802 15.9653 15.7931 16.2005 15.5138C16.4406 15.2345 16.7664 15.0948 17.178 15.0948C17.5945 15.0948 17.9204 15.2369 18.1556 15.5211C18.3908 15.8053 18.5084 16.19 18.5084 16.6751C18.5084 17.1651 18.3908 17.5522 18.1556 17.8364C17.9204 18.1206 17.5945 18.2627 17.178 18.2627ZM17.178 17.6747C17.3593 17.6747 17.499 17.5938 17.597 17.4321C17.6999 17.2704 17.7513 17.0181 17.7513 16.6751C17.7513 16.3272 17.6999 16.0773 17.597 15.9254C17.499 15.7686 17.3593 15.6902 17.178 15.6902C16.9967 15.6902 16.8546 15.7661 16.7517 15.918C16.6537 16.0699 16.6047 16.3223 16.6047 16.6751C16.6047 17.0279 16.6537 17.2827 16.7517 17.4395C16.8546 17.5963 16.9967 17.6747 17.178 17.6747ZM20.9045 20.4236C20.488 20.4236 20.1621 20.2815 19.9269 19.9973C19.6917 19.7082 19.5741 19.3186 19.5741 18.8286C19.5741 18.3337 19.6917 17.9491 19.9269 17.6747C20.167 17.3954 20.4929 17.2557 20.9045 17.2557C21.321 17.2557 21.6468 17.3978 21.882 17.682C22.1172 17.9613 22.2348 18.3435 22.2348 18.8286C22.2348 19.3186 22.1172 19.7082 21.882 19.9973C21.6468 20.2815 21.321 20.4236 20.9045 20.4236ZM20.9045 19.8282C21.0858 19.8282 21.2254 19.7498 21.3234 19.593C21.4263 19.4313 21.4778 19.1765 21.4778 18.8286C21.4778 18.4807 21.4263 18.2308 21.3234 18.0789C21.2254 17.9221 21.0858 17.8437 20.9045 17.8437C20.7232 17.8437 20.5811 17.9221 20.4782 18.0789C20.3802 18.2308 20.3312 18.4807 20.3312 18.8286C20.3312 19.1814 20.3802 19.4362 20.4782 19.593C20.5811 19.7498 20.7232 19.8282 20.9045 19.8282Z" fill="#4FDFB1"/>
</svg>
