<svg width="11" height="3" viewBox="0 0 11 3" fill="none" xmlns="http://www.w3.org/2000/svg">
<path d="M1.67501 0.100098C1.00126 0.100098 0.450012 0.651348 0.450012 1.3251C0.450012 1.99885 1.00126 2.5501 1.67501 2.5501C2.34876 2.5501 2.90001 1.99885 2.90001 1.3251C2.90001 0.651348 2.34876 0.100098 1.67501 0.100098ZM9.02501 0.100098C8.35126 0.100098 7.80001 0.651348 7.80001 1.3251C7.80001 1.99885 8.35126 2.5501 9.02501 2.5501C9.69876 2.5501 10.25 1.99885 10.25 1.3251C10.25 0.651348 9.69876 0.100098 9.02501 0.100098ZM5.35001 0.100098C4.67626 0.100098 4.12501 0.651348 4.12501 1.3251C4.12501 1.99885 4.67626 2.5501 5.35001 2.5501C6.02376 2.5501 6.57501 1.99885 6.57501 1.3251C6.57501 0.651348 6.02376 0.100098 5.35001 0.100098Z" fill="#393939"/>
</svg>
