<svg width="13" height="13" viewBox="0 0 13 13" fill="none" xmlns="http://www.w3.org/2000/svg">
<path d="M6.14983 12.9001C2.767 12.9001 0.0248337 10.158 0.0248337 6.77515C0.0248337 3.39231 2.767 0.650146 6.14983 0.650146C9.53267 0.650146 12.2748 3.39231 12.2748 6.77515C12.2748 10.158 9.53267 12.9001 6.14983 12.9001ZM6.14983 11.6751C7.44939 11.6751 8.69573 11.1589 9.61466 10.24C10.5336 9.32104 11.0498 8.07471 11.0498 6.77515C11.0498 5.47559 10.5336 4.22925 9.61466 3.31032C8.69573 2.3914 7.44939 1.87515 6.14983 1.87515C4.85027 1.87515 3.60394 2.3914 2.68501 3.31032C1.76608 4.22925 1.24983 5.47559 1.24983 6.77515C1.24983 8.07471 1.76608 9.32104 2.68501 10.24C3.60394 11.1589 4.85027 11.6751 6.14983 11.6751V11.6751ZM6.14983 3.74327L9.18171 6.77515L6.14983 9.80702L3.11796 6.77515L6.14983 3.74327V3.74327ZM6.14983 5.47603L4.85072 6.77515L6.14983 8.07426L7.44895 6.77515L6.14983 5.47603V5.47603Z" fill="white"/>
</svg>
